<svg xmlns="http://www.w3.org/2000/svg" width="353" height="353" viewBox="0 0 353 353"><g transform="translate(-1415.5 3.5)"><path d="M0,0A80,80,0,0,0,80,80,80,80,0,0,0,160,0" transform="translate(1511 172)" fill="none" stroke="#e7e7e7" stroke-miterlimit="10" stroke-width="1" opacity="0.101"/><path d="M6.98,29.839A92.052,92.052,0,1,0,157.054,0" transform="translate(1499 106.946)" fill="none" stroke="#e7e7e7" stroke-miterlimit="10" stroke-width="1" opacity="0.151"/><path d="M30.461,0A103.968,103.968,0,1,0,200.109,33.731" transform="translate(1487 98.461)" fill="none" stroke="#e7e7e7" stroke-miterlimit="10" stroke-width="1" opacity="0.202"/><path d="M116,232A116,116,0,1,0,0,116,115.637,115.637,0,0,0,116,232Z" transform="translate(1475 56)" fill="none" stroke="#e7e7e7" stroke-miterlimit="10" stroke-width="1" opacity="0.25"/><path d="M128,256a128,128,0,1,0-90.51-37.49A128,128,0,0,0,128,256Z" transform="translate(1463 44)" fill="none" stroke="#e7e7e7" stroke-miterlimit="10" stroke-width="1" opacity="0.254"/><circle cx="140" cy="140" r="140" transform="translate(1451 32)" fill="none" stroke="#e7e7e7" stroke-miterlimit="10" stroke-width="1" opacity="0.247"/><circle cx="152" cy="152" r="152" transform="translate(1439 20)" fill="none" stroke="#e7e7e7" stroke-miterlimit="10" stroke-width="1" opacity="0.251"/><circle cx="164" cy="164" r="164" transform="translate(1428 9)" fill="none" stroke="#e7e7e7" stroke-miterlimit="10" stroke-width="1" opacity="0.255"/><circle cx="176" cy="176" r="176" transform="translate(1416 -3)" fill="none" stroke="#e7e7e7" stroke-miterlimit="10" stroke-width="1" opacity="0.247"/></g></svg>